<svg width="50" height="50" viewBox="0 0 50 50" fill="none" xmlns="http://www.w3.org/2000/svg">
<g clip-path="url(#clip0_19_10838)">
<path d="M9 0V8.12682C9 8.27002 9.06949 8.37742 9.17372 8.44903C9.3127 8.52063 9.52117 8.59223 9.76439 8.69963C9.93811 8.80703 10.1813 8.95024 10.355 8.98604C10.633 9.05764 10.772 8.84284 10.772 8.59223V1.79005H39.2628V7.84041C39.2628 8.09102 39.506 8.16262 39.7144 8.05521C40.0966 7.80461 40.3398 7.73301 40.6873 7.6256C40.8958 7.5898 41 7.4824 41 7.30339V0H9Z" fill="#FF7739"/>
<path d="M39.2609 42.582V48.3217H10.7391C10.7391 48.3217 10.7391 43.0183 10.7391 42.4477C10.7391 42.0785 10.0435 42.0449 9.69565 42.0113C9.34783 41.9778 9 42.0113 9 42.2127V50H41V42.4477C41 42.2799 40.7913 42.2463 40.5478 42.2463C40.2348 42.2463 39.9565 42.2127 39.6783 42.3134C39.5739 42.347 39.2609 42.4477 39.2609 42.582Z" fill="#FF7739"/>
<path d="M12 20.2675C11.8925 20.6427 11.8209 21.0521 11.6776 21.4273C11.5343 21.7002 11.391 21.939 11.1761 22.2119C10.7104 22.8259 10.2806 23.4399 9.6 23.8833C9.52836 23.9174 9.52836 23.9515 9.45672 23.9856C8.70448 24.702 7.8806 25.2819 7.05672 25.8959C6.62687 26.237 6.12537 26.5099 5.73134 26.9192C5.30149 27.1239 4.9791 27.4991 4.6209 27.772C4.44179 27.9425 4.29851 28.1131 4.19104 28.3519C4.01194 28.6589 3.68955 28.8294 3.36716 28.9659C3.29552 29 3.18806 29 3.11642 29C3.04478 29 2.93731 29 2.82985 28.9318C2.75821 28.8636 2.68657 28.7612 2.5791 28.6589C2.4 28.6589 2.14925 28.6248 1.93433 28.6248C1.75522 28.5566 1.64776 28.4542 1.61194 28.3178C1.43284 28.0449 1.25373 27.772 1.07463 27.3968C0.78806 27.1239 0.39403 26.8169 0.0716418 26.4075C0.0716418 26.237 0 26.0664 0 25.8959V24.8043C0.0358209 23.0305 0.0716418 21.2567 0.0716418 19.5512C0.0716418 19.2783 0.0716418 19.0395 0.143284 18.8007C0.214925 18.6643 0.179104 18.5278 0.214925 18.3573C0.214925 17.8797 0.250746 17.4022 0.286567 16.9246C0.286567 16.7199 0.286567 16.5153 0.358209 16.3106C0.429851 16.14 0.429851 15.9695 0.429851 15.7989C0.465672 15.0826 0.465672 14.4004 0.501493 13.7181C0.501493 13.6158 0.501493 13.5135 0.501493 13.4111C0.501493 13.1382 0.501493 12.8995 0.608955 12.6607C0.644776 12.5242 0.644776 12.3878 0.644776 12.2855C0.644776 11.9785 0.680597 11.6715 0.680597 11.3645L0.931343 10.8187C1.11045 10.6481 1.25373 10.5458 1.46866 10.4434C1.79104 10.307 2.11343 10.2047 2.47164 10.1364C2.65075 10.0682 2.86567 10.0682 3.00896 10.0682C3.51045 10 4.1194 10 4.65672 10C5.22985 10 5.80298 10.0341 6.37612 10.0682C7.0209 10.1364 7.62985 10.307 8.23881 10.4776C8.41791 10.5458 8.56119 10.6481 8.70448 10.7504C8.95522 11.1257 9.13433 11.5009 9.31343 11.8761C9.38507 12.0126 9.4209 12.149 9.4209 12.2855C9.4209 12.456 9.34925 12.5925 9.27761 12.7289C9.20597 12.8654 9.13433 13.0018 9.02687 13.1382C8.81194 13.3429 8.63284 13.6158 8.48955 13.8887C8.09552 14.4345 7.59403 14.912 7.12836 15.3896C6.94925 15.5601 6.69851 15.6625 6.59104 15.9013C6.66269 15.9695 6.66269 16.0718 6.77015 16.0718C7.0209 16.1741 7.30746 16.2765 7.55821 16.3447C7.80896 16.4129 8.02388 16.4811 8.27463 16.5153C8.7403 16.5835 9.17015 16.7882 9.63582 16.8905C10.1731 17.0269 10.5313 17.2998 10.8537 17.7092C11.0328 17.9138 11.1761 18.1526 11.3552 18.3914C11.5343 18.7666 11.6776 19.0395 11.7851 19.3465C11.8925 19.6535 11.8925 19.9264 12 20.2675ZM8.77612 19.5512C8.77612 19.4829 8.77612 19.3806 8.70448 19.3124C8.52537 19.1759 8.31045 19.1077 8.09552 19.0395C7.52239 18.9713 6.94925 18.6984 6.37612 18.6302C5.4806 18.289 4.51343 18.1185 3.65373 17.7774C3.47463 17.8115 3.36716 17.8797 3.2597 18.1185C3.22388 18.9372 3.22388 19.7558 3.18806 20.6086C3.18806 20.7792 3.18806 20.9838 3.18806 21.1203C3.18806 21.3932 3.18806 21.6661 3.0806 21.939V22.1095C3.0806 22.3824 3.0806 22.6553 3.0806 22.9623C3.0806 23.0987 3.0806 23.2352 3.0806 23.3716C3.0806 23.5422 3.15224 23.7127 3.15224 23.8833C3.15224 23.9174 3.15224 23.9174 3.15224 23.9515C3.15224 24.1221 3.04478 24.2926 3.04478 24.4632C3.04478 24.4973 3.04478 24.4973 3.04478 24.5314C3.0806 24.5996 3.0806 24.6338 3.0806 24.702C3.15224 24.8043 3.2597 24.8725 3.36716 24.8725C3.40298 24.8725 3.43881 24.8725 3.47463 24.8384C3.51045 24.7702 3.54627 24.7702 3.61791 24.7361C4.15522 24.2926 4.65672 23.8833 5.19403 23.4399C5.37313 23.3034 5.55224 23.167 5.73134 23.0305C5.87463 22.9282 6.01791 22.8259 6.16119 22.6894C6.69851 22.1777 7.30746 21.632 7.84478 21.1203C8.13134 20.8474 8.27463 20.5404 8.48955 20.2334C8.59702 20.0969 8.66866 19.9264 8.70448 19.7558C8.77612 19.6876 8.77612 19.6535 8.77612 19.5512ZM3.43881 12.7289C3.43881 13.2065 3.43881 13.684 3.47463 14.1616C3.47463 14.2298 3.51045 14.298 3.54627 14.3662C3.61791 14.4004 3.65373 14.4345 3.72537 14.5027C3.79701 14.4345 3.90448 14.4345 3.97612 14.3321C4.29851 14.0592 4.65672 13.7181 4.9791 13.4111C5.26567 13.1382 5.51642 12.8312 5.80299 12.5583C5.87463 12.4901 5.87463 12.3878 5.87463 12.3537C5.76716 12.2172 5.6597 12.1831 5.51642 12.1831C5.26567 12.1831 5.01493 12.149 4.8 12.149C4.44179 12.149 4.1194 12.1831 3.79701 12.2172C3.51045 12.2855 3.43881 12.4901 3.43881 12.7289Z" fill="#3B4453"/>
<path d="M24 27.6927C23.9645 27.9944 23.8227 28.1955 23.5035 28.4302C23.3617 28.5642 23.2199 28.5978 23.0426 28.5978C22.9716 28.5978 22.9716 28.5978 22.9007 28.5978C22.7234 28.5978 22.6879 28.5978 22.5816 28.5978C22.5461 28.5978 22.4043 28.5978 22.4043 28.5978C22.2624 28.5307 22.2979 28.4637 22.156 28.4302C22.0142 28.3966 21.9787 28.2961 21.8723 28.1955C21.5887 27.7933 21.4468 27.6257 21.305 27.1899C21.1631 26.9218 21.234 26.7207 21.1277 26.4525C21.0922 26.2514 21.0567 26.1508 21.0213 25.9497C20.9504 25.581 20.8794 25.3464 20.8085 25.0112C20.7376 24.5084 20.6312 24.1732 20.5603 23.7374C20.5248 23.5363 20.4894 23.3352 20.4184 23.1341C19.6738 23.2682 17.4397 23.2682 17.3333 23.6369C17.2624 23.905 17.2269 24.2067 17.156 24.5754C17.1206 24.8101 17.156 24.9777 17.1206 25.1788C17.0851 25.6145 17.0496 25.8827 16.9433 26.3184C16.9433 26.3855 16.9078 26.419 16.9078 26.486C16.9078 26.5531 16.9078 26.5866 16.9078 26.6536C16.9078 26.7207 16.9078 26.7877 16.9078 26.8547C16.9078 27.0223 16.9433 27.1229 16.9078 27.257C16.9078 27.4916 16.9078 27.6257 16.8369 27.8268C16.6596 28.5642 16.234 29 15.7021 29C15.6312 29 15.5248 29 15.4539 28.9665C14.9929 28.8659 14.7092 28.8324 14.3191 28.4637C14.1418 28.2961 14.0355 27.9609 14 27.7263C14 27.6592 14 27.6257 14 27.5587C14.0355 27.3911 14.0709 27.2905 14.0709 27.1229C14.1418 26.6872 14.1773 26.419 14.2482 25.9832C14.3191 25.7151 14.3191 25.581 14.3191 25.2793C14.3901 24.8771 14.3901 24.6425 14.4255 24.2067C14.4965 23.7039 14.4255 23.3687 14.4965 22.8659C14.5674 22.4637 14.6383 22.2626 14.6738 21.8939C14.7092 21.7263 14.7092 21.6257 14.7092 21.4581C14.7092 21.3911 14.7092 21.3575 14.7092 21.2905C14.7092 21.1899 14.7092 21.1229 14.7092 21.0223C14.7447 20.8547 14.7447 20.7542 14.7447 20.5866C14.8156 20.1508 14.8511 19.8827 14.8865 19.4469C14.922 19.3464 14.922 19.2793 14.922 19.1788C14.9929 18.743 15.0284 18.4749 15.0993 18.0391C15.1348 17.9385 15.1348 17.8715 15.1348 17.771C15.2057 17.1341 15.2057 16.7654 15.2766 16.162C15.4184 15.3911 15.6312 14.3184 15.7021 13.4134C15.7376 13.2793 15.7376 13.2123 15.7376 13.0782C15.8085 12.7095 15.7021 12.4749 15.9149 12.1732C16.234 11.7039 16.4468 11.3687 17.0142 11.2011C17.4043 11.067 17.5461 11 17.6879 11C17.8298 11 17.9716 11.067 18.2908 11.1676C19 11.4358 19.2128 11.8715 19.7092 12.4078C19.8865 12.5754 19.8511 12.7765 19.922 12.9106C20.4184 13.8156 20.6667 14.6201 21.0567 15.7263C21.2695 16.2291 21.3759 16.5307 21.5177 17.067C21.695 17.5698 21.7305 17.8715 21.8369 18.3408C21.9433 18.676 22.0142 18.8436 22.0851 19.1788C22.2979 19.9162 22.4397 20.4525 22.617 21.0559C22.7943 21.6927 22.9362 22.3296 23.1489 22.9665C23.2199 23.3017 23.2908 23.5698 23.3617 24.0056C23.5035 24.5419 23.5745 24.8436 23.6809 25.3799C23.7518 25.514 23.7163 25.6145 23.7518 25.7486C23.8227 26.0503 23.9291 26.2179 23.9291 26.5196C23.9645 26.6872 23.9645 26.7877 24 26.9218C24 27.0223 24 27.1564 24 27.324C24 27.4916 24 27.6257 24 27.6927ZM19.4255 19.648C19.2482 19.2123 19.0709 18.2402 18.8582 17.5363C18.6099 16.7989 18.4326 16.0279 18.2553 16.0279C18.1489 16.0279 18.078 16.4302 18.078 16.5307C18.0071 17.2682 17.6525 19.581 17.6525 20.3184C17.6525 20.4525 17.6879 20.5531 17.6879 20.6536C17.7589 20.7207 17.7943 20.7877 17.8652 20.7877C18.1489 20.8547 19.2482 20.8883 19.8865 20.9888C19.7447 20.5196 19.6028 20.0838 19.4255 19.648Z" fill="#3B4453"/>
<path d="M35 18.6195C35 18.6534 35 18.6873 35 18.6873C35 18.8566 34.9289 18.9582 34.8933 19.1614C34.8933 19.1952 34.8933 19.1952 34.8933 19.1952C34.8933 19.2291 34.8933 19.2629 34.8933 19.2629C34.8933 19.2968 34.8933 19.2968 34.8933 19.2968C34.7866 19.7709 34.7154 20.1096 34.6087 20.4821C34.502 20.8546 34.3241 21.261 34.2174 21.6673C34.1107 22.0737 33.9328 22.3785 33.7905 22.8187C33.7194 23.0896 33.6126 23.2251 33.5771 23.4622C33.3992 23.9701 33.3636 24.2749 33.2213 24.8167C33.1146 25.257 33.0435 25.494 32.9368 25.9343C32.9368 26.002 32.9012 26.0359 32.8656 26.1036C32.581 26.7131 32.4743 27.2211 32.083 27.7291C32.0119 27.7968 32.0119 27.8984 31.9051 27.9661C31.9051 28 31.8696 28 31.834 28C31.834 28 31.834 28 31.7984 28C31.4071 27.9323 31.0514 27.8307 30.8024 27.8307C30.5889 27.8307 30.4111 27.7629 30.2688 27.6952C29.9842 27.5936 29.7352 27.4582 29.6285 27.1534C29.5929 26.9841 29.5573 26.8825 29.5573 26.8147C29.5573 26.5438 29.664 26.3406 29.6996 26.0359C29.7708 25.6295 29.8775 25.3924 29.9842 24.9522C30.0198 24.8506 30.0198 24.7829 30.0553 24.6813C30.3755 23.7331 30.5889 23.2251 30.9447 22.2769C31.087 21.8705 31.2292 21.5996 31.336 21.2948C31.4427 20.9562 31.4071 20.99 31.5138 20.6853C31.5494 20.6175 31.585 20.5498 31.585 20.5159C31.585 20.4482 31.5494 20.3466 31.5494 20.3127C31.5138 20.245 31.4783 20.1434 31.4071 20.0418C31.0158 19.9741 30.6957 20.008 30.3043 19.9741C30.1976 19.9741 30.1265 19.9741 30.0198 19.9741C29.8063 19.9741 29.5929 19.9741 29.415 19.9064C29.3439 19.8725 29.3083 19.8386 29.2372 19.8386C29.0237 19.8048 28.8103 19.8048 28.5613 19.7709C28.4901 19.7709 28.419 19.7032 28.3834 19.7032C27.8498 19.5339 27.3518 19.1614 26.8893 18.8904C26.5692 18.7211 26.4269 18.5518 26.249 18.2809C26.0711 18.01 26.0356 17.8406 26 17.5359C26 17.502 26 17.502 26 17.4681C26 17.2311 26.1067 17.0618 26.1067 16.8586C26.1423 16.6215 26.1423 16.4183 26.2134 16.1813C26.2846 15.8765 26.3557 15.5378 26.4625 15.1992C26.6403 14.7251 26.8538 14.251 27.0316 13.7769C27.1028 13.6414 27.1739 13.506 27.2451 13.3705C27.4585 13.0657 27.7075 12.761 27.9209 12.4223C28.3478 11.7789 29.2727 11.5418 29.9842 11.0677C30.0553 11 30.1621 11 30.2688 11C30.3755 11 30.4111 11.0339 30.4822 11.0339C30.6601 11.1016 30.7668 11.2032 30.9091 11.3048C30.9802 11.3725 31.0158 11.4402 31.0158 11.5757C31.0158 11.6096 31.0158 11.6434 31.0158 11.6773C31.0158 11.8466 30.9802 11.9482 30.9447 12.1175C30.8735 12.3546 30.8735 12.49 30.7668 12.6932C30.5178 13.0996 30.3043 13.2689 30.0909 13.6076C29.913 13.9801 29.664 14.3187 29.5573 14.6912C29.4862 15.0299 29.3439 15.3008 29.2372 15.6056C29.166 15.8765 29.0593 16.1135 29.0237 16.3506C28.9526 16.5199 28.8458 16.6892 28.8458 16.8586C28.8458 16.9263 28.8458 16.9602 28.8814 17.0279C28.9526 17.1972 29.166 17.2311 29.3439 17.2988C29.415 17.3327 29.5217 17.3327 29.6285 17.3327C30.0553 17.3327 30.4111 17.1972 30.8735 17.0956C31.3004 16.9602 31.7628 16.9263 32.2253 16.9263C32.7233 16.9263 33.2213 16.994 33.7549 17.1972C34.1818 17.3665 34.5375 17.6036 34.751 17.9422C34.9289 18.1793 34.9644 18.3147 35 18.6195Z" fill="#3B4453"/>
<path d="M50 11.4359C50 11.6752 49.9663 11.9145 49.9326 12.1538C49.764 12.5641 49.7977 13.0085 49.6628 13.3846C49.5954 13.6239 49.5954 13.8974 49.5279 14.1026C49.4268 14.3761 49.4268 14.7179 49.393 14.9915C49.3593 15.1282 49.393 15.265 49.3256 15.3675C49.157 15.7436 49.2244 16.1197 49.1907 16.5299C49.1907 16.9744 49.1907 17.453 49.157 17.8974C49.157 17.9658 49.157 18.0684 49.157 18.1709C49.157 18.3419 49.157 18.547 49.0896 18.7179C49.0221 18.8547 49.0221 18.9915 49.0221 19.1624C48.9884 19.5385 48.9884 19.9145 48.9547 20.3248C48.9547 20.5983 48.9547 20.8376 48.8872 21.0769C48.8198 21.2821 48.8198 21.5556 48.8198 21.7949C48.8535 22.0684 48.8535 22.3077 48.8535 22.547C48.8535 23.2991 48.7861 24.0855 48.7861 24.8034C48.7861 25.8291 48.7861 26.8547 48.7524 27.9487C48.6512 28.188 48.5838 28.4274 48.3477 28.5641C48.2803 28.5983 48.2466 28.6325 48.1791 28.6325C47.9431 28.6325 47.707 28.6667 47.471 28.7692C47.4035 28.8376 47.3024 28.8034 47.2012 28.8376C47.0326 28.7692 46.8977 28.7009 46.6954 28.6325C46.4257 28.4273 46.1896 28.1197 45.9536 27.8803C45.9199 27.7436 45.8861 27.641 45.8861 27.5043C45.9199 26.4786 45.9199 25.453 45.9199 24.4274C45.9199 24.188 45.9199 23.9145 46.021 23.7094C46.0547 23.6068 46.0547 23.5385 46.0547 23.4359C46.0885 22.8205 46.0885 22.2393 46.1222 21.6239C46.1222 21.5897 46.0885 21.5556 46.0885 21.5556C46.021 21.5214 46.021 21.4872 45.9199 21.4188C45.7513 21.453 45.5152 21.4188 45.3129 21.4872C45.0431 21.5897 44.8071 21.5897 44.5373 21.6923C44.3013 21.7607 44.0653 21.7607 43.8292 21.8291C43.3571 21.9658 42.885 22 42.413 22C42.3455 22.0684 42.2444 22.0684 42.1769 22.1709C42.1095 22.2393 42.042 22.3077 41.9746 22.3761C41.9746 22.4786 41.9409 22.5812 41.9409 22.7179C41.9072 23.1624 41.9072 23.6068 41.9072 24.0855C41.9072 24.4957 41.9072 24.8718 41.8734 25.2479C41.8734 25.4188 41.8734 25.6239 41.8397 25.7949C41.806 25.9658 41.7723 26.0684 41.7386 26.2051C41.806 26.4103 41.8397 26.5812 41.8397 26.7521C41.8734 26.8547 41.8734 26.9231 41.8734 27.0256C41.8734 27.1282 41.8734 27.2308 41.8397 27.2991C41.8397 27.3675 41.8397 27.4701 41.806 27.5726C41.6711 27.8462 41.6711 28.1538 41.6711 28.4615C41.6711 28.5299 41.6711 28.6325 41.6711 28.735C41.6711 28.906 41.6711 29.0769 41.6711 29.2479C41.5362 29.5214 41.3339 29.6239 41.1316 29.7607C41.0642 29.7607 40.9967 29.7949 40.963 29.7949C40.7944 29.8291 40.6258 29.8632 40.4572 29.9316C40.3898 30 40.2886 30 40.2212 30C40.0526 30 39.9514 29.9316 39.8165 29.7949C39.7491 29.7265 39.6816 29.6923 39.6479 29.6239C39.513 29.453 39.3444 29.3504 39.1421 29.2479C39.0409 29.1795 38.9735 29.0769 38.8723 28.9744C38.8723 28.8034 38.8386 28.5983 38.8386 28.4274C38.8386 27.812 38.8723 27.2308 38.8723 26.6154C38.9061 25.5897 38.9061 24.5641 38.9061 23.5385C38.9061 23.1966 38.9061 22.8547 39.0409 22.547C38.9735 22.4444 38.9061 22.2735 38.8049 22.2735C38.2654 22.2051 38.2654 22.2051 37.8607 22C37.591 21.8291 37.4224 21.7265 37.2538 21.4872C37.0852 21.2821 36.9503 21.0769 37.0177 20.8376C37.1189 20.4274 37.3549 20.2564 37.6584 19.9487C37.7259 19.8803 37.827 19.9145 37.9282 19.8803C38.4677 19.812 38.2991 19.9145 38.8049 19.7094C38.8723 19.6752 38.9735 19.641 39.0409 19.5726C39.0747 19.4701 39.0747 19.3333 39.1084 19.2308V17.6923C39.1084 17.1795 39.1084 16.6325 39.1084 16.1197C39.1084 15.8462 39.1084 15.6068 39.1084 15.3333C39.1084 15.1624 39.1084 15.0256 39.1084 14.8889C39.1084 14.6154 39.1421 14.3419 39.2433 14.0684C39.2433 14 39.2433 14 39.2433 13.9316C39.2433 13.3504 39.4119 12.7692 39.6142 12.2222C39.6816 12.0513 39.6816 11.812 39.7491 11.6068C39.8165 11.4359 39.8165 11.265 39.8502 11.094C40.0188 10.8889 40.12 10.6838 40.2886 10.4786C40.3898 10.4103 40.5246 10.3077 40.5921 10.2735C40.6932 10.2393 40.8281 10.2393 40.9293 10.2393C41.0304 10.2393 41.1653 10.2393 41.3002 10.3077C41.4014 10.3761 41.5362 10.4444 41.6711 10.4786L41.7386 10.547C42.0083 10.9573 42.2106 11.4359 42.2444 11.9829C42.2444 12.0513 42.2781 12.0513 42.2781 12.1197C42.2781 12.188 42.2444 12.2906 42.2106 12.359C42.1432 12.5983 42.1432 12.8376 42.1432 13.0769C42.0758 13.5214 42.1432 13.9658 41.9746 14.4103C41.9409 14.7521 41.9072 15.0598 41.9072 15.4017C41.9072 16.6667 41.9072 17.9658 41.9409 19.1282C42.0083 19.4017 42.1095 19.5043 42.3455 19.5043C42.5141 19.5043 42.6827 19.4359 42.8513 19.4017C42.9862 19.3675 43.1211 19.3333 43.2897 19.3333C43.4583 19.2991 43.6606 19.3333 43.7955 19.2308C44.0653 19.094 44.4025 19.1624 44.6385 19.0256C44.9083 18.9231 45.178 18.9573 45.4141 18.8547C45.6164 18.7863 45.8187 18.7863 46.021 18.7521C46.0885 18.7179 46.1222 18.6838 46.1896 18.6496C46.2571 18.5812 46.3245 18.5128 46.3245 18.4444C46.3919 18.2735 46.3582 18.1368 46.3919 18C46.3919 17.7265 46.3919 17.4872 46.4594 17.2479C46.5268 17.1111 46.5268 16.9744 46.5268 16.8034C46.5268 16.4957 46.5268 16.1538 46.5605 15.812C46.5605 15.7436 46.5605 15.641 46.5605 15.5726C46.5605 15.4017 46.5605 15.265 46.628 15.094C46.6617 15.0256 46.6617 14.9915 46.6617 14.9231C46.6617 14.3077 46.864 13.6923 46.9315 13.0427C46.9652 12.735 47.0663 12.3932 47.1675 12.0855C47.2349 11.9487 47.2349 11.812 47.2687 11.641C47.2687 11.3675 47.3698 11.1282 47.5384 10.8547C47.6396 10.7179 47.8082 10.5812 47.9431 10.4103C48.1117 10.2735 48.2128 10.1026 48.3814 10C48.7186 10.0684 49.0221 10.1368 49.3256 10.3419C49.5616 10.6154 49.5954 10.9915 49.764 11.2991C50 11.1966 50 11.2991 50 11.4359Z" fill="#3B4453"/>
<path d="M8 33V34.2792H6.15287V40H4.87898V34.2792H3V33H8Z" fill="#3B4453"/>
<path d="M15.5 40C13.4667 40 12 38.4709 12 36.5C12 34.5291 13.5 33 15.5 33C17.5333 33 19 34.5291 19 36.5C19 38.4709 17.5333 40 15.5 40ZM15.5 38.7427C16.7 38.7427 17.6 37.8252 17.6 36.5C17.6 35.1748 16.7 34.2573 15.5 34.2573C14.3 34.2573 13.4 35.1748 13.4 36.5C13.4 37.8252 14.3 38.7427 15.5 38.7427Z" fill="#3B4453"/>
<path d="M29 36.4822C29 38.4365 27.4912 40 25.3158 40H23V33H25.3158C27.4912 33 29 34.5279 29 36.4822ZM24.4035 34.2792V38.6853H25.3158C26.6491 38.6853 27.5263 37.7614 27.5263 36.4822C27.5263 35.203 26.614 34.2792 25.3158 34.2792H24.4035Z" fill="#3B4453"/>
<path d="M34.028 38.5076L33.4065 40H32L34.9439 33H36.0561L39 40H37.5935L36.972 38.5076H34.028ZM35.5327 34.9543H35.5L34.5841 37.1929H36.4813L35.5327 34.9543Z" fill="#3B4453"/>
<path d="M44.3548 37.1218L42 33H43.4516L45 35.7716L46.5484 33H48L45.6452 37.1218V40H44.3548V37.1218Z" fill="#3B4453"/>
</g>
<defs>
<clipPath id="clip0_19_10838">
<rect width="50" height="50" fill="white"/>
</clipPath>
</defs>
</svg>
