<svg width="24" height="21" viewBox="0 0 24 21" fill="none" xmlns="http://www.w3.org/2000/svg">
<path d="M5.39065 15.5864C4.99599 15.0171 4.31689 14.5341 3.47401 14.5341H1.53419C1.5221 14.5341 1.41268 14.5287 1.266 14.3211C1.12113 14.1161 1 13.7806 1 13.3633V8.41856C1 8.00119 1.12113 7.66568 1.266 7.46069C1.41268 7.25315 1.5221 7.24771 1.53419 7.24771H3.47412C4.30258 7.24771 4.97705 6.78582 5.38618 6.25732C6.2827 5.09923 8.51733 3.01761 10.4976 1.82885C10.9847 1.53641 11.432 1.31314 11.8198 1.17125C12.2189 1.02522 12.49 0.989657 12.6486 1.00236C12.7589 1.0112 12.7718 1.0351 12.7768 1.0443C12.7773 1.04522 12.7777 1.046 12.7781 1.0466C12.8121 1.09374 12.91 1.2818 12.91 1.77292V18.3047C12.91 19.5829 12.5248 19.85 12.3492 19.9255C12.0329 20.0613 11.3968 20.0393 10.4151 19.6193C8.51515 18.8065 6.32774 16.9383 5.39065 15.5864Z" stroke="#3B4453" stroke-width="2"/>
<path d="M17.2495 6.52515C17.9725 7.72803 18.4087 9.28599 18.4087 10.9879C18.4087 12.3289 18.1379 13.5804 17.6695 14.6393" stroke="#3B4453" stroke-width="2" stroke-linecap="round"/>
<path d="M20.1638 3.04468C21.5787 5.27865 22.3619 8.12277 22.2181 11.1828C22.1048 13.5936 21.4311 15.8171 20.3589 17.6748" stroke="#3B4453" stroke-width="2" stroke-linecap="round"/>
</svg>
