<svg width="17" height="22" viewBox="0 0 17 22" fill="none" xmlns="http://www.w3.org/2000/svg">
<path d="M8.21704 15.6155V21.0001" stroke="#3B4453" stroke-width="2" stroke-linecap="round" stroke-linejoin="round"/>
<path d="M4.37061 21H12.0629" stroke="#3B4453" stroke-width="2" stroke-linecap="round" stroke-linejoin="round"/>
<path d="M3.6018 1H12.8325L15.3421 9.49034C15.4968 10.0222 15.4559 10.5918 15.2267 11.0961C14.6173 12.4445 13.6318 13.5886 12.3886 14.391C11.1453 15.1935 9.69692 15.6203 8.21716 15.6203C6.7374 15.6203 5.28904 15.1935 4.04576 14.391C2.80247 13.5886 1.81703 12.4445 1.20758 11.0961C0.978451 10.5918 0.937518 10.0222 1.0922 9.49034L3.6018 1Z" stroke="#3B4453" stroke-width="2" stroke-linecap="round" stroke-linejoin="round"/>
<path d="M1.43823 8.33631C2.45746 7.78824 4.82283 6.99978 8.21704 8.69208C11.8324 10.4998 14.2843 9.48054 15.1785 8.95169" stroke="#3B4453" stroke-width="2" stroke-linecap="round" stroke-linejoin="round"/>
</svg>
